<svg version="1.1" viewBox="0.0 0.0 200.0 200.0" fill="none" stroke="none" stroke-linecap="square" stroke-miterlimit="10" xmlns:xlink="http://www.w3.org/1999/xlink" xmlns="http://www.w3.org/2000/svg"><clipPath id="p.0"><path d="m0 0l200.0 0l0 200.0l-200.0 0l0 -200.0z" clip-rule="nonzero"/></clipPath><g clip-path="url(#p.0)"><path fill="#000000" fill-opacity="0.0" d="m0 0l200.0 0l0 200.0l-200.0 0z" fill-rule="evenodd"/><path fill="#b7b7b7" d="m9.580052 151.74617l0 0c0 -3.032547 2.4583702 -5.490921 5.490924 -5.490921l21.963036 0l0 0c1.4562836 0 2.8529205 0.57850647 3.8826675 1.6082611c1.029747 1.0297394 1.6082535 2.4263763 1.6082535 3.88266l0 35.285873c0 3.032547 -2.4583702 5.490921 -5.490921 5.490921l-21.963036 0c-3.0325537 0 -5.490924 -2.458374 -5.490924 -5.490921z" fill-rule="evenodd"/><path stroke="#000000" stroke-width="1.0" stroke-linejoin="round" stroke-linecap="butt" d="m9.580052 151.74617l0 0c0 -3.032547 2.4583702 -5.490921 5.490924 -5.490921l21.963036 0l0 0c1.4562836 0 2.8529205 0.57850647 3.8826675 1.6082611c1.029747 1.0297394 1.6082535 2.4263763 1.6082535 3.88266l0 35.285873c0 3.032547 -2.4583702 5.490921 -5.490921 5.490921l-21.963036 0c-3.0325537 0 -5.490924 -2.458374 -5.490924 -5.490921z" fill-rule="evenodd"/><path fill="#b7b7b7" d="m58.87839 105.48436l0 0c0 -3.0325546 2.4583702 -5.490921 5.490925 -5.490921l21.963036 0l0 0c1.4562836 0 2.8529205 0.57850647 3.8826675 1.6082535c1.029747 1.029747 1.6082535 2.426384 1.6082535 3.8826675l0 81.55359c0 3.032547 -2.4583664 5.490921 -5.490921 5.490921l-21.963036 0c-3.0325546 0 -5.490925 -2.458374 -5.490925 -5.490921z" fill-rule="evenodd"/><path stroke="#000000" stroke-width="1.0" stroke-linejoin="round" stroke-linecap="butt" d="m58.87839 105.48436l0 0c0 -3.0325546 2.4583702 -5.490921 5.490925 -5.490921l21.963036 0l0 0c1.4562836 0 2.8529205 0.57850647 3.8826675 1.6082535c1.029747 1.029747 1.6082535 2.426384 1.6082535 3.8826675l0 81.55359c0 3.032547 -2.4583664 5.490921 -5.490921 5.490921l-21.963036 0c-3.0325546 0 -5.490925 -2.458374 -5.490925 -5.490921z" fill-rule="evenodd"/><path fill="#b7b7b7" d="m108.176735 59.22255l0 0c0 -3.0325508 2.4583664 -5.490921 5.490921 -5.490921l21.963036 0l0 0c1.4562836 0 2.8529205 0.57850647 3.8826752 1.6082535c1.0297394 1.029747 1.6082458 2.426384 1.6082458 3.8826675l0 127.78981c0 3.032547 -2.458374 5.490921 -5.490921 5.490921l-21.963036 0c-3.0325546 0 -5.490921 -2.458374 -5.490921 -5.490921z" fill-rule="evenodd"/><path stroke="#000000" stroke-width="1.0" stroke-linejoin="round" stroke-linecap="butt" d="m108.176735 59.22255l0 0c0 -3.0325508 2.4583664 -5.490921 5.490921 -5.490921l21.963036 0l0 0c1.4562836 0 2.8529205 0.57850647 3.8826752 1.6082535c1.0297394 1.029747 1.6082458 2.426384 1.6082458 3.8826675l0 127.78981c0 3.032547 -2.458374 5.490921 -5.490921 5.490921l-21.963036 0c-3.0325546 0 -5.490921 -2.458374 -5.490921 -5.490921z" fill-rule="evenodd"/><path fill="#b7b7b7" d="m157.47507 12.96074l0 0c0 -3.0325537 2.458374 -5.490924 5.490921 -5.490924l21.963043 0l0 0c1.4562836 0 2.8529205 0.57850647 3.8826752 1.6082544c1.0297394 1.029748 1.6082458 2.4263859 1.6082458 3.8826694l0 174.05753c0 3.032547 -2.458374 5.490921 -5.490921 5.490921l-21.963043 0c-3.032547 0 -5.490921 -2.458374 -5.490921 -5.490921z" fill-rule="evenodd"/><path stroke="#000000" stroke-width="1.0" stroke-linejoin="round" stroke-linecap="butt" d="m157.47507 12.96074l0 0c0 -3.0325537 2.458374 -5.490924 5.490921 -5.490924l21.963043 0l0 0c1.4562836 0 2.8529205 0.57850647 3.8826752 1.6082544c1.0297394 1.029748 1.6082458 2.4263859 1.6082458 3.8826694l0 174.05753c0 3.032547 -2.458374 5.490921 -5.490921 5.490921l-21.963043 0c-3.032547 0 -5.490921 -2.458374 -5.490921 -5.490921z" fill-rule="evenodd"/></g></svg>