<svg version="1.1" viewBox="0.0 0.0 200.0 200.0" fill="none" stroke="none" stroke-linecap="square" stroke-miterlimit="10" xmlns:xlink="http://www.w3.org/1999/xlink" xmlns="http://www.w3.org/2000/svg"><clipPath id="p.0"><path d="m0 0l200.0 0l0 200.0l-200.0 0l0 -200.0z" clip-rule="nonzero"/></clipPath><g clip-path="url(#p.0)"><path fill="#000000" fill-opacity="0.0" d="m0 0l200.0 0l0 200.0l-200.0 0z" fill-rule="evenodd"/><path fill="#000000" fill-opacity="0.0" d="m1.1469816 65.67979l0 0c0 -9.477261 7.682841 -17.160103 17.160105 -17.160103l150.21523 0c4.5511475 0 8.915878 1.8079338 12.134033 5.026081c3.2181396 3.2181435 5.0260773 7.582882 5.0260773 12.134022l0 68.64042c0 9.477264 -7.682846 17.16011 -17.16011 17.16011l-150.21523 0c-9.477264 0 -17.160105 -7.682846 -17.160105 -17.16011z" fill-rule="evenodd"/><path stroke="#000000" stroke-width="1.0" stroke-linejoin="round" stroke-linecap="butt" d="m1.1469816 65.67979l0 0c0 -9.477261 7.682841 -17.160103 17.160105 -17.160103l150.21523 0c4.5511475 0 8.915878 1.8079338 12.134033 5.026081c3.2181396 3.2181435 5.0260773 7.582882 5.0260773 12.134022l0 68.64042c0 9.477264 -7.682846 17.16011 -17.16011 17.16011l-150.21523 0c-9.477264 0 -17.160105 -7.682846 -17.160105 -17.16011z" fill-rule="evenodd"/><path fill="#e06666" d="m13.35126 64.70548l0 0c0 -3.0440865 2.467722 -5.5118103 5.5118113 -5.5118103l22.047245 0l0 0c1.4618225 0 2.8637733 0.58070755 3.897438 1.6143723c1.0336647 1.0336647 1.6143723 2.4356155 1.6143723 3.897438l0 71.2441c0 3.0440826 -2.4677238 5.5118103 -5.5118103 5.5118103l-22.047245 0c-3.0440893 0 -5.5118113 -2.4677277 -5.5118113 -5.5118103z" fill-rule="evenodd"/><path stroke="#000000" stroke-width="1.0" stroke-linejoin="round" stroke-linecap="butt" d="m13.35126 64.70548l0 0c0 -3.0440865 2.467722 -5.5118103 5.5118113 -5.5118103l22.047245 0l0 0c1.4618225 0 2.8637733 0.58070755 3.897438 1.6143723c1.0336647 1.0336647 1.6143723 2.4356155 1.6143723 3.897438l0 71.2441c0 3.0440826 -2.4677238 5.5118103 -5.5118103 5.5118103l-22.047245 0c-3.0440893 0 -5.5118113 -2.4677277 -5.5118113 -5.5118103z" fill-rule="evenodd"/><path fill="#999999" d="m185.68767 84.36532l0 0c0 -1.2118607 0.9824066 -2.1942673 2.194275 -2.1942673l8.77681 0l0 0c0.58195496 0 1.1400757 0.23117828 1.55159 0.64268494c0.41149902 0.41150665 0.64268494 0.9696274 0.64268494 1.5515823l0 31.957916c0 1.2118607 -0.9824066 2.194275 -2.194275 2.194275l-8.77681 0c-1.2118683 0 -2.194275 -0.98241425 -2.194275 -2.194275z" fill-rule="evenodd"/><path stroke="#000000" stroke-width="1.0" stroke-linejoin="round" stroke-linecap="butt" d="m185.68767 84.36532l0 0c0 -1.2118607 0.9824066 -2.1942673 2.194275 -2.1942673l8.77681 0l0 0c0.58195496 0 1.1400757 0.23117828 1.55159 0.64268494c0.41149902 0.41150665 0.64268494 0.9696274 0.64268494 1.5515823l0 31.957916c0 1.2118607 -0.9824066 2.194275 -2.194275 2.194275l-8.77681 0c-1.2118683 0 -2.194275 -0.98241425 -2.194275 -2.194275z" fill-rule="evenodd"/></g></svg>